G04 #@! TF.FileFunction,Paste,Top*
%FSLAX46Y46*%
G04 Gerber Fmt 4.6, Leading zero omitted, Abs format (unit mm)*
G04 Created by KiCad (PCBNEW 4.0.1-stable) date Friday, April 08, 2016 'AMt' 02:22:46 AM*
%MOMM*%
G01*
G04 APERTURE LIST*
%ADD10C,0.020000*%
%ADD11R,1.000000X1.250000*%
%ADD12R,1.600200X3.599180*%
%ADD13R,1.250000X1.000000*%
%ADD14R,3.599180X1.600200*%
%ADD15R,2.600960X1.600200*%
%ADD16R,1.198880X1.198880*%
%ADD17R,1.270000X1.400000*%
%ADD18R,4.800000X4.720000*%
%ADD19R,3.200000X2.600000*%
%ADD20R,0.450000X0.590000*%
%ADD21R,2.600000X3.200000*%
%ADD22R,0.590000X0.450000*%
%ADD23R,0.800100X0.800100*%
%ADD24R,1.651000X3.048000*%
%ADD25R,6.096000X6.096000*%
%ADD26R,0.700000X1.300000*%
%ADD27R,1.300000X0.700000*%
%ADD28R,0.762000X0.431800*%
%ADD29R,0.431800X0.762000*%
%ADD30R,3.048000X1.651000*%
%ADD31R,1.450000X0.450000*%
%ADD32R,0.700000X0.250000*%
%ADD33R,0.250000X0.700000*%
%ADD34R,0.540000X0.690000*%
%ADD35R,0.420000X0.890000*%
%ADD36R,0.564000X0.504000*%
%ADD37R,1.550000X0.600000*%
%ADD38R,0.705000X0.705000*%
G04 APERTURE END LIST*
D10*
D11*
X127270000Y-149479000D03*
X129270000Y-149479000D03*
X122825000Y-134239000D03*
X124825000Y-134239000D03*
D12*
X119380000Y-145458180D03*
X119380000Y-150959820D03*
D11*
X122825000Y-139954000D03*
X124825000Y-139954000D03*
D13*
X95885000Y-29829000D03*
X95885000Y-27829000D03*
D11*
X76565000Y-26289000D03*
X74565000Y-26289000D03*
D13*
X161290000Y-58150000D03*
X161290000Y-56150000D03*
X132588000Y-51324000D03*
X132588000Y-53324000D03*
X193040000Y-48784000D03*
X193040000Y-50784000D03*
X171323000Y-46212000D03*
X171323000Y-44212000D03*
X149225000Y-45323000D03*
X149225000Y-43323000D03*
D14*
X143212820Y-58293000D03*
X137711180Y-58293000D03*
D13*
X168656000Y-57674000D03*
X168656000Y-59674000D03*
D11*
X150987000Y-60960000D03*
X148987000Y-60960000D03*
D14*
X178899820Y-60071000D03*
X173398180Y-60071000D03*
D11*
X191500000Y-60198000D03*
X189500000Y-60198000D03*
D13*
X122428000Y-47355000D03*
X122428000Y-45355000D03*
X145923000Y-52181000D03*
X145923000Y-50181000D03*
D11*
X180102000Y-42672000D03*
X182102000Y-42672000D03*
D13*
X174879000Y-54975000D03*
X174879000Y-52975000D03*
D11*
X159940000Y-44640500D03*
X157940000Y-44640500D03*
D13*
X130429000Y-61960000D03*
X130429000Y-59960000D03*
D11*
X187309000Y-42418000D03*
X185309000Y-42418000D03*
X183658000Y-61468000D03*
X185658000Y-61468000D03*
D13*
X131953000Y-57896000D03*
X131953000Y-55896000D03*
X114173000Y-49387000D03*
X114173000Y-47387000D03*
X160909000Y-49387000D03*
X160909000Y-47387000D03*
D11*
X111871000Y-61087000D03*
X109871000Y-61087000D03*
D14*
X139108180Y-44069000D03*
X144609820Y-44069000D03*
D11*
X126730000Y-61722000D03*
X124730000Y-61722000D03*
D13*
X118491000Y-47355000D03*
X118491000Y-45355000D03*
X115951000Y-57896000D03*
X115951000Y-55896000D03*
D11*
X109109000Y-56515000D03*
X111109000Y-56515000D03*
X117078000Y-60960000D03*
X115078000Y-60960000D03*
X148098000Y-135636000D03*
X150098000Y-135636000D03*
X192135000Y-43434000D03*
X190135000Y-43434000D03*
D13*
X201295000Y-57769000D03*
X201295000Y-55769000D03*
D11*
X154670000Y-70104000D03*
X152670000Y-70104000D03*
D13*
X179070000Y-82439000D03*
X179070000Y-84439000D03*
D11*
X170450000Y-80264000D03*
X172450000Y-80264000D03*
D13*
X175260000Y-90154000D03*
X175260000Y-88154000D03*
D11*
X170450000Y-84709000D03*
X172450000Y-84709000D03*
X154289000Y-118364000D03*
X152289000Y-118364000D03*
X166005000Y-68199000D03*
X168005000Y-68199000D03*
D15*
X205000860Y-49784000D03*
X201399140Y-49784000D03*
D13*
X176657000Y-134128000D03*
X176657000Y-136128000D03*
X194437000Y-134509000D03*
X194437000Y-136509000D03*
D14*
X163913820Y-107442000D03*
X158412180Y-107442000D03*
D13*
X178308000Y-119491000D03*
X178308000Y-117491000D03*
D11*
X145812000Y-131826000D03*
X147812000Y-131826000D03*
X161179000Y-136906000D03*
X163179000Y-136906000D03*
D13*
X165989000Y-131969000D03*
X165989000Y-133969000D03*
D14*
X142410180Y-120777000D03*
X147911820Y-120777000D03*
D13*
X199517000Y-135620000D03*
X199517000Y-133620000D03*
X198374000Y-119015000D03*
X198374000Y-121015000D03*
D11*
X184134000Y-132588000D03*
X182134000Y-132588000D03*
X187944000Y-118110000D03*
X185944000Y-118110000D03*
X183753000Y-136144000D03*
X181753000Y-136144000D03*
D13*
X165227000Y-122317000D03*
X165227000Y-124317000D03*
D11*
X165084000Y-118110000D03*
X163084000Y-118110000D03*
X157242000Y-118237000D03*
X159242000Y-118237000D03*
X203470000Y-141605000D03*
X205470000Y-141605000D03*
X125587000Y-28448000D03*
X123587000Y-28448000D03*
D13*
X173990000Y-120253000D03*
X173990000Y-118253000D03*
X219456000Y-132350000D03*
X219456000Y-134350000D03*
D14*
X213022180Y-110744000D03*
X218523820Y-110744000D03*
D11*
X203089000Y-120650000D03*
X205089000Y-120650000D03*
D13*
X205740000Y-129270000D03*
X205740000Y-127270000D03*
X220599000Y-126508000D03*
X220599000Y-128508000D03*
X202819000Y-129270000D03*
X202819000Y-127270000D03*
D11*
X214741000Y-122555000D03*
X212741000Y-122555000D03*
X191246000Y-142113000D03*
X189246000Y-142113000D03*
D13*
X142494000Y-129016000D03*
X142494000Y-127016000D03*
D16*
X201994000Y-150973020D03*
X201994000Y-148874980D03*
D17*
X110715000Y-145264000D03*
D18*
X106910000Y-146304000D03*
D17*
X110715000Y-147344000D03*
D19*
X109855000Y-123654000D03*
X109855000Y-130854000D03*
D20*
X68580000Y-31584000D03*
X68580000Y-33694000D03*
D16*
X85310980Y-111379000D03*
X87409020Y-111379000D03*
X84675980Y-92329000D03*
X86774020Y-92329000D03*
D21*
X93135000Y-100584000D03*
X85935000Y-100584000D03*
X93770000Y-119634000D03*
X86570000Y-119634000D03*
D16*
X84675980Y-57404000D03*
X86774020Y-57404000D03*
X84675980Y-73914000D03*
X86774020Y-73914000D03*
D21*
X93135000Y-82169000D03*
X85935000Y-82169000D03*
X93135000Y-65024000D03*
X85935000Y-65024000D03*
D16*
X89120980Y-50419000D03*
X91219020Y-50419000D03*
X89120980Y-36449000D03*
X91219020Y-36449000D03*
D19*
X83185000Y-43009000D03*
X83185000Y-50209000D03*
X83185000Y-29039000D03*
X83185000Y-36239000D03*
D22*
X180555000Y-73279000D03*
X182665000Y-73279000D03*
D20*
X159385000Y-74334000D03*
X159385000Y-72224000D03*
D22*
X181190000Y-68199000D03*
X183300000Y-68199000D03*
X183935000Y-89789000D03*
X181825000Y-89789000D03*
X184365000Y-98679000D03*
X186475000Y-98679000D03*
D20*
X175895000Y-97829000D03*
X175895000Y-95719000D03*
D22*
X177380000Y-78994000D03*
X179490000Y-78994000D03*
X163615000Y-80264000D03*
X161505000Y-80264000D03*
D23*
X196865240Y-149418000D03*
X196865240Y-151318000D03*
X198864220Y-150368000D03*
D24*
X100584000Y-116459000D03*
D25*
X102870000Y-110109000D03*
D24*
X105156000Y-116459000D03*
X101219000Y-98044000D03*
D25*
X103505000Y-91694000D03*
D24*
X105791000Y-98044000D03*
X101219000Y-79629000D03*
D25*
X103505000Y-73279000D03*
D24*
X105791000Y-79629000D03*
X101219000Y-61214000D03*
D25*
X103505000Y-54864000D03*
D24*
X105791000Y-61214000D03*
D23*
X96835000Y-46243240D03*
X94935000Y-46243240D03*
X95885000Y-48242220D03*
X96835000Y-35448240D03*
X94935000Y-35448240D03*
X95885000Y-37447220D03*
D26*
X197868000Y-144844000D03*
X199768000Y-144844000D03*
D27*
X74930000Y-34224000D03*
X74930000Y-32324000D03*
X68580000Y-25974000D03*
X68580000Y-27874000D03*
D26*
X133665000Y-46736000D03*
X131765000Y-46736000D03*
D27*
X174879000Y-49845000D03*
X174879000Y-47945000D03*
D26*
X154810000Y-44640500D03*
X152910000Y-44640500D03*
X176972000Y-43180000D03*
X175072000Y-43180000D03*
X155260000Y-61087000D03*
X157160000Y-61087000D03*
X190439000Y-57531000D03*
X192339000Y-57531000D03*
X117472000Y-52260500D03*
X115572000Y-52260500D03*
X164272000Y-52959000D03*
X162372000Y-52959000D03*
D27*
X167132000Y-53274000D03*
X167132000Y-51374000D03*
D26*
X125288000Y-45593000D03*
X127188000Y-45593000D03*
X121854000Y-61976000D03*
X119954000Y-61976000D03*
D27*
X196215000Y-43119000D03*
X196215000Y-45019000D03*
D26*
X147635000Y-105029000D03*
X145735000Y-105029000D03*
D27*
X217170000Y-58994000D03*
X217170000Y-60894000D03*
X131445000Y-88839000D03*
X131445000Y-90739000D03*
D26*
X103820000Y-123444000D03*
X101920000Y-123444000D03*
X106995000Y-103124000D03*
X105095000Y-103124000D03*
X94930000Y-111379000D03*
X93030000Y-111379000D03*
X94930000Y-92329000D03*
X93030000Y-92329000D03*
X107630000Y-66294000D03*
X105730000Y-66294000D03*
X106995000Y-84709000D03*
X105095000Y-84709000D03*
X93660000Y-57404000D03*
X91760000Y-57404000D03*
X94930000Y-73914000D03*
X93030000Y-73914000D03*
X101915000Y-35179000D03*
X100015000Y-35179000D03*
X103820000Y-46609000D03*
X101920000Y-46609000D03*
X89220000Y-42799000D03*
X91120000Y-42799000D03*
X89220000Y-29464000D03*
X91120000Y-29464000D03*
X122240000Y-99314000D03*
X124140000Y-99314000D03*
X144465000Y-80264000D03*
X146365000Y-80264000D03*
X151450000Y-85344000D03*
X153350000Y-85344000D03*
X122240000Y-92964000D03*
X124140000Y-92964000D03*
X145735000Y-91694000D03*
X147635000Y-91694000D03*
X146370000Y-87249000D03*
X148270000Y-87249000D03*
X168595000Y-73914000D03*
X170495000Y-73914000D03*
X151450000Y-80264000D03*
X153350000Y-80264000D03*
D27*
X140970000Y-78674000D03*
X140970000Y-76774000D03*
D26*
X183200000Y-77724000D03*
X185100000Y-77724000D03*
D27*
X188595000Y-76774000D03*
X188595000Y-78674000D03*
X197993000Y-130490000D03*
X197993000Y-128590000D03*
X165100000Y-128458000D03*
X165100000Y-126558000D03*
X188849000Y-135194000D03*
X188849000Y-137094000D03*
D26*
X192344000Y-118110000D03*
X194244000Y-118110000D03*
X155895000Y-136906000D03*
X157795000Y-136906000D03*
D27*
X169672000Y-119314000D03*
X169672000Y-117414000D03*
D26*
X218882000Y-119634000D03*
X216982000Y-119634000D03*
D27*
X175260000Y-126045000D03*
X175260000Y-124145000D03*
D26*
X177226000Y-129413000D03*
X175326000Y-129413000D03*
X126553000Y-33401000D03*
X124653000Y-33401000D03*
X210627000Y-118491000D03*
X208727000Y-118491000D03*
D28*
X117602000Y-30843220D03*
X119126000Y-30843220D03*
X117602000Y-31640780D03*
X119126000Y-31640780D03*
X117602000Y-30043120D03*
X117602000Y-32440880D03*
X119126000Y-32440880D03*
X119126000Y-30043120D03*
X101727000Y-30497780D03*
X100203000Y-30497780D03*
X101727000Y-29700220D03*
X100203000Y-29700220D03*
X101727000Y-31297880D03*
X101727000Y-28900120D03*
X100203000Y-28900120D03*
X100203000Y-31297880D03*
D29*
X205503780Y-94742000D03*
X205503780Y-96266000D03*
X204706220Y-94742000D03*
X204706220Y-96266000D03*
X206303880Y-94742000D03*
X203906120Y-94742000D03*
X203906120Y-96266000D03*
X206303880Y-96266000D03*
X203106020Y-94742000D03*
X202305920Y-94742000D03*
X207904080Y-94742000D03*
X207103980Y-94742000D03*
X207103980Y-96266000D03*
X207904080Y-96266000D03*
X202305920Y-96266000D03*
X203106020Y-96266000D03*
X207246220Y-42291000D03*
X207246220Y-40767000D03*
X208043780Y-42291000D03*
X208043780Y-40767000D03*
X206446120Y-42291000D03*
X208843880Y-42291000D03*
X208843880Y-40767000D03*
X206446120Y-40767000D03*
X214231220Y-42291000D03*
X214231220Y-40767000D03*
X215028780Y-42291000D03*
X215028780Y-40767000D03*
X213431120Y-42291000D03*
X215828880Y-42291000D03*
X215828880Y-40767000D03*
X213431120Y-40767000D03*
D30*
X116840000Y-139700000D03*
D25*
X110490000Y-137414000D03*
D30*
X116840000Y-135128000D03*
D31*
X108175000Y-27809000D03*
X108175000Y-28459000D03*
X108175000Y-29109000D03*
X108175000Y-29759000D03*
X108175000Y-30409000D03*
X108175000Y-31059000D03*
X108175000Y-31709000D03*
X108175000Y-32359000D03*
X108175000Y-33009000D03*
X108175000Y-33659000D03*
X114075000Y-33659000D03*
X114075000Y-33009000D03*
X114075000Y-32359000D03*
X114075000Y-31709000D03*
X114075000Y-31059000D03*
X114075000Y-30409000D03*
X114075000Y-29759000D03*
X114075000Y-29109000D03*
X114075000Y-28459000D03*
X114075000Y-27809000D03*
D32*
X157086000Y-55971000D03*
X157086000Y-55471000D03*
X157086000Y-54971000D03*
X157086000Y-54471000D03*
X157086000Y-53971000D03*
X157086000Y-53471000D03*
X157086000Y-52971000D03*
X157086000Y-52471000D03*
X157086000Y-51971000D03*
X157086000Y-51471000D03*
D33*
X156436000Y-50821000D03*
X155936000Y-50821000D03*
X155436000Y-50821000D03*
X154936000Y-50821000D03*
X154436000Y-50821000D03*
X153936000Y-50821000D03*
X153436000Y-50821000D03*
X152936000Y-50821000D03*
D32*
X152286000Y-51471000D03*
X152286000Y-51971000D03*
X152286000Y-52471000D03*
X152286000Y-52971000D03*
X152286000Y-53471000D03*
X152286000Y-53971000D03*
X152286000Y-54471000D03*
X152286000Y-54971000D03*
X152286000Y-55471000D03*
X152286000Y-55971000D03*
D33*
X152936000Y-56621000D03*
X153436000Y-56621000D03*
X153936000Y-56621000D03*
X154436000Y-56621000D03*
X154936000Y-56621000D03*
X155436000Y-56621000D03*
X155936000Y-56621000D03*
X156436000Y-56621000D03*
D34*
X153336000Y-51996000D03*
X153336000Y-53146000D03*
X153336000Y-54296000D03*
X153336000Y-55446000D03*
X154236000Y-51996000D03*
X154236000Y-53146000D03*
X154236000Y-54296000D03*
X154236000Y-55446000D03*
X155136000Y-51996000D03*
X155136000Y-53146000D03*
X155136000Y-54296000D03*
X155136000Y-55446000D03*
X156036000Y-51996000D03*
X156036000Y-53146000D03*
X156036000Y-54296000D03*
X156036000Y-55446000D03*
D32*
X185280000Y-53050000D03*
X185280000Y-52550000D03*
X185280000Y-52050000D03*
X185280000Y-51550000D03*
X185280000Y-51050000D03*
X185280000Y-50550000D03*
X185280000Y-50050000D03*
X185280000Y-49550000D03*
X185280000Y-49050000D03*
X185280000Y-48550000D03*
D33*
X184630000Y-47900000D03*
X184130000Y-47900000D03*
X183630000Y-47900000D03*
X183130000Y-47900000D03*
X182630000Y-47900000D03*
X182130000Y-47900000D03*
X181630000Y-47900000D03*
X181130000Y-47900000D03*
D32*
X180480000Y-48550000D03*
X180480000Y-49050000D03*
X180480000Y-49550000D03*
X180480000Y-50050000D03*
X180480000Y-50550000D03*
X180480000Y-51050000D03*
X180480000Y-51550000D03*
X180480000Y-52050000D03*
X180480000Y-52550000D03*
X180480000Y-53050000D03*
D33*
X181130000Y-53700000D03*
X181630000Y-53700000D03*
X182130000Y-53700000D03*
X182630000Y-53700000D03*
X183130000Y-53700000D03*
X183630000Y-53700000D03*
X184130000Y-53700000D03*
X184630000Y-53700000D03*
D34*
X181530000Y-49075000D03*
X181530000Y-50225000D03*
X181530000Y-51375000D03*
X181530000Y-52525000D03*
X182430000Y-49075000D03*
X182430000Y-50225000D03*
X182430000Y-51375000D03*
X182430000Y-52525000D03*
X183330000Y-49075000D03*
X183330000Y-50225000D03*
X183330000Y-51375000D03*
X183330000Y-52525000D03*
X184230000Y-49075000D03*
X184230000Y-50225000D03*
X184230000Y-51375000D03*
X184230000Y-52525000D03*
D35*
X165141000Y-47317000D03*
X165791000Y-47317000D03*
X166441000Y-47317000D03*
X167091000Y-47317000D03*
X167091000Y-43107000D03*
X166441000Y-43107000D03*
X165791000Y-43107000D03*
X165141000Y-43107000D03*
D36*
X166586000Y-44792000D03*
X165646000Y-44792000D03*
X166586000Y-45632000D03*
X165646000Y-45632000D03*
D32*
X126987000Y-55844000D03*
X126987000Y-55344000D03*
X126987000Y-54844000D03*
X126987000Y-54344000D03*
X126987000Y-53844000D03*
X126987000Y-53344000D03*
X126987000Y-52844000D03*
X126987000Y-52344000D03*
X126987000Y-51844000D03*
X126987000Y-51344000D03*
D33*
X126337000Y-50694000D03*
X125837000Y-50694000D03*
X125337000Y-50694000D03*
X124837000Y-50694000D03*
X124337000Y-50694000D03*
X123837000Y-50694000D03*
X123337000Y-50694000D03*
X122837000Y-50694000D03*
D32*
X122187000Y-51344000D03*
X122187000Y-51844000D03*
X122187000Y-52344000D03*
X122187000Y-52844000D03*
X122187000Y-53344000D03*
X122187000Y-53844000D03*
X122187000Y-54344000D03*
X122187000Y-54844000D03*
X122187000Y-55344000D03*
X122187000Y-55844000D03*
D33*
X122837000Y-56494000D03*
X123337000Y-56494000D03*
X123837000Y-56494000D03*
X124337000Y-56494000D03*
X124837000Y-56494000D03*
X125337000Y-56494000D03*
X125837000Y-56494000D03*
X126337000Y-56494000D03*
D34*
X123237000Y-51869000D03*
X123237000Y-53019000D03*
X123237000Y-54169000D03*
X123237000Y-55319000D03*
X124137000Y-51869000D03*
X124137000Y-53019000D03*
X124137000Y-54169000D03*
X124137000Y-55319000D03*
X125037000Y-51869000D03*
X125037000Y-53019000D03*
X125037000Y-54169000D03*
X125037000Y-55319000D03*
X125937000Y-51869000D03*
X125937000Y-53019000D03*
X125937000Y-54169000D03*
X125937000Y-55319000D03*
D37*
X208755000Y-58674000D03*
X208755000Y-59944000D03*
X208755000Y-61214000D03*
X208755000Y-62484000D03*
X214155000Y-62484000D03*
X214155000Y-61214000D03*
X214155000Y-59944000D03*
X214155000Y-58674000D03*
D38*
X212042500Y-61166500D03*
X212042500Y-59991500D03*
X210867500Y-61166500D03*
X210867500Y-59991500D03*
D31*
X202155000Y-103079000D03*
X202155000Y-103729000D03*
X202155000Y-104379000D03*
X202155000Y-105029000D03*
X202155000Y-105679000D03*
X202155000Y-106329000D03*
X202155000Y-106979000D03*
X208055000Y-106979000D03*
X208055000Y-106329000D03*
X208055000Y-105679000D03*
X208055000Y-105029000D03*
X208055000Y-104379000D03*
X208055000Y-103729000D03*
X208055000Y-103079000D03*
X209140000Y-46564000D03*
X209140000Y-47214000D03*
X209140000Y-47864000D03*
X209140000Y-48514000D03*
X209140000Y-49164000D03*
X209140000Y-49814000D03*
X209140000Y-50464000D03*
X215040000Y-50464000D03*
X215040000Y-49814000D03*
X215040000Y-49164000D03*
X215040000Y-48514000D03*
X215040000Y-47864000D03*
X215040000Y-47214000D03*
X215040000Y-46564000D03*
D23*
X187005000Y-82438240D03*
X185105000Y-82438240D03*
X186055000Y-84437220D03*
D32*
X187465000Y-124115000D03*
X187465000Y-124615000D03*
X187465000Y-125115000D03*
X187465000Y-125615000D03*
X187465000Y-126115000D03*
X187465000Y-126615000D03*
X187465000Y-127115000D03*
X187465000Y-127615000D03*
X187465000Y-128115000D03*
X187465000Y-128615000D03*
D33*
X188115000Y-129265000D03*
X188615000Y-129265000D03*
X189115000Y-129265000D03*
X189615000Y-129265000D03*
X190115000Y-129265000D03*
X190615000Y-129265000D03*
X191115000Y-129265000D03*
X191615000Y-129265000D03*
D32*
X192265000Y-128615000D03*
X192265000Y-128115000D03*
X192265000Y-127615000D03*
X192265000Y-127115000D03*
X192265000Y-126615000D03*
X192265000Y-126115000D03*
X192265000Y-125615000D03*
X192265000Y-125115000D03*
X192265000Y-124615000D03*
X192265000Y-124115000D03*
D33*
X191615000Y-123465000D03*
X191115000Y-123465000D03*
X190615000Y-123465000D03*
X190115000Y-123465000D03*
X189615000Y-123465000D03*
X189115000Y-123465000D03*
X188615000Y-123465000D03*
X188115000Y-123465000D03*
D34*
X191215000Y-128090000D03*
X191215000Y-126940000D03*
X191215000Y-125790000D03*
X191215000Y-124640000D03*
X190315000Y-128090000D03*
X190315000Y-126940000D03*
X190315000Y-125790000D03*
X190315000Y-124640000D03*
X189415000Y-128090000D03*
X189415000Y-126940000D03*
X189415000Y-125790000D03*
X189415000Y-124640000D03*
X188515000Y-128090000D03*
X188515000Y-126940000D03*
X188515000Y-125790000D03*
X188515000Y-124640000D03*
D32*
X152794000Y-126147000D03*
X152794000Y-126647000D03*
X152794000Y-127147000D03*
X152794000Y-127647000D03*
X152794000Y-128147000D03*
X152794000Y-128647000D03*
X152794000Y-129147000D03*
X152794000Y-129647000D03*
X152794000Y-130147000D03*
X152794000Y-130647000D03*
D33*
X153444000Y-131297000D03*
X153944000Y-131297000D03*
X154444000Y-131297000D03*
X154944000Y-131297000D03*
X155444000Y-131297000D03*
X155944000Y-131297000D03*
X156444000Y-131297000D03*
X156944000Y-131297000D03*
D32*
X157594000Y-130647000D03*
X157594000Y-130147000D03*
X157594000Y-129647000D03*
X157594000Y-129147000D03*
X157594000Y-128647000D03*
X157594000Y-128147000D03*
X157594000Y-127647000D03*
X157594000Y-127147000D03*
X157594000Y-126647000D03*
X157594000Y-126147000D03*
D33*
X156944000Y-125497000D03*
X156444000Y-125497000D03*
X155944000Y-125497000D03*
X155444000Y-125497000D03*
X154944000Y-125497000D03*
X154444000Y-125497000D03*
X153944000Y-125497000D03*
X153444000Y-125497000D03*
D34*
X156544000Y-130122000D03*
X156544000Y-128972000D03*
X156544000Y-127822000D03*
X156544000Y-126672000D03*
X155644000Y-130122000D03*
X155644000Y-128972000D03*
X155644000Y-127822000D03*
X155644000Y-126672000D03*
X154744000Y-130122000D03*
X154744000Y-128972000D03*
X154744000Y-127822000D03*
X154744000Y-126672000D03*
X153844000Y-130122000D03*
X153844000Y-128972000D03*
X153844000Y-127822000D03*
X153844000Y-126672000D03*
D35*
X171409000Y-125657000D03*
X170759000Y-125657000D03*
X170109000Y-125657000D03*
X169459000Y-125657000D03*
X169459000Y-129867000D03*
X170109000Y-129867000D03*
X170759000Y-129867000D03*
X171409000Y-129867000D03*
D36*
X169964000Y-128182000D03*
X170904000Y-128182000D03*
X169964000Y-127342000D03*
X170904000Y-127342000D03*
D32*
X209690000Y-131481000D03*
X209690000Y-131981000D03*
X209690000Y-132481000D03*
X209690000Y-132981000D03*
X209690000Y-133481000D03*
X209690000Y-133981000D03*
X209690000Y-134481000D03*
X209690000Y-134981000D03*
X209690000Y-135481000D03*
X209690000Y-135981000D03*
D33*
X210340000Y-136631000D03*
X210840000Y-136631000D03*
X211340000Y-136631000D03*
X211840000Y-136631000D03*
X212340000Y-136631000D03*
X212840000Y-136631000D03*
X213340000Y-136631000D03*
X213840000Y-136631000D03*
D32*
X214490000Y-135981000D03*
X214490000Y-135481000D03*
X214490000Y-134981000D03*
X214490000Y-134481000D03*
X214490000Y-133981000D03*
X214490000Y-133481000D03*
X214490000Y-132981000D03*
X214490000Y-132481000D03*
X214490000Y-131981000D03*
X214490000Y-131481000D03*
D33*
X213840000Y-130831000D03*
X213340000Y-130831000D03*
X212840000Y-130831000D03*
X212340000Y-130831000D03*
X211840000Y-130831000D03*
X211340000Y-130831000D03*
X210840000Y-130831000D03*
X210340000Y-130831000D03*
D34*
X213440000Y-135456000D03*
X213440000Y-134306000D03*
X213440000Y-133156000D03*
X213440000Y-132006000D03*
X212540000Y-135456000D03*
X212540000Y-134306000D03*
X212540000Y-133156000D03*
X212540000Y-132006000D03*
X211640000Y-135456000D03*
X211640000Y-134306000D03*
X211640000Y-133156000D03*
X211640000Y-132006000D03*
X210740000Y-135456000D03*
X210740000Y-134306000D03*
X210740000Y-133156000D03*
X210740000Y-132006000D03*
D31*
X108810000Y-37842000D03*
X108810000Y-38492000D03*
X108810000Y-39142000D03*
X108810000Y-39792000D03*
X108810000Y-40442000D03*
X108810000Y-41092000D03*
X108810000Y-41742000D03*
X108810000Y-42392000D03*
X108810000Y-43042000D03*
X108810000Y-43692000D03*
X114710000Y-43692000D03*
X114710000Y-43042000D03*
X114710000Y-42392000D03*
X114710000Y-41742000D03*
X114710000Y-41092000D03*
X114710000Y-40442000D03*
X114710000Y-39792000D03*
X114710000Y-39142000D03*
X114710000Y-38492000D03*
X114710000Y-37842000D03*
D28*
X105029000Y-40276780D03*
X103505000Y-40276780D03*
X105029000Y-39479220D03*
X103505000Y-39479220D03*
X105029000Y-41076880D03*
X105029000Y-38679120D03*
X103505000Y-38679120D03*
X103505000Y-41076880D03*
X105029000Y-37879020D03*
X105029000Y-37078920D03*
X105029000Y-42677080D03*
X105029000Y-41876980D03*
X103505000Y-41876980D03*
X103505000Y-42677080D03*
X103505000Y-37078920D03*
X103505000Y-37879020D03*
X118237000Y-39225220D03*
X119761000Y-39225220D03*
X118237000Y-40022780D03*
X119761000Y-40022780D03*
X118237000Y-38425120D03*
X118237000Y-40822880D03*
X119761000Y-40822880D03*
X119761000Y-38425120D03*
X118237000Y-41622980D03*
X118237000Y-42423080D03*
X118237000Y-36824920D03*
X118237000Y-37625020D03*
X119761000Y-37625020D03*
X119761000Y-36824920D03*
X119761000Y-42423080D03*
X119761000Y-41622980D03*
M02*
