M48
INCH,TZ
T1C0.016
T2C0.032
T3C0.032
T4C0.039
T5C0.040
T6C0.047
T7C0.050
T8C0.055
T9C0.125
T10C0.149
T11C0.150
%
G90
G05
T1
X29465Y-43850
X35610Y-25667
X36571Y-16161
X36700Y-12900
X37800Y-16500
X38033Y-39250
X38700Y-11000
X39787Y-27453
X41374Y-11204
X41374Y-23014
X41633Y-18336
X42091Y-12228
X42122Y-13850
X42122Y-16280
X42620Y-24357
X42761Y-23014
X42909Y-10057
X43071Y-11716
X43122Y-12484
X43450Y-15935
X43545Y-9809
X43793Y-11460
X43854Y-15922
X43994Y-11972
X44000Y-38350
X44059Y-12995
X44150Y-21855
X44182Y-18086
X44250Y-16474
X44267Y-15510
X44416Y-19119
X44540Y-14559
X44540Y-16690
X44565Y-13538
X44582Y-15460
X44650Y-17195
X44882Y-21206
X45173Y-22880
X45325Y-13827
X45507Y-19902
X45600Y-11800
X45700Y-12300
X45850Y-11500
X45998Y-21077
X46100Y-13400
X46136Y-13844
X46204Y-20113
X46206Y-17840
X46267Y-46236
X46500Y-52507
X46781Y-11022
X46795Y-38086
X46822Y-27734
X46885Y-25123
X46912Y-17113
X47007Y-17445
X47085Y-21675
X47228Y-20045
X47364Y-23891
X47486Y-17501
X47486Y-19319
X47498Y-20328
X47503Y-14784
X47631Y-32100
X47700Y-11050
X47827Y-17254
X47972Y-23060
X47999Y-16881
X48021Y-16067
X48050Y-19900
X48492Y-23981
X48519Y-20421
X48519Y-21326
X48873Y-20874
X48873Y-21779
X49011Y-19031
X49193Y-36018
X49205Y-12262
X49227Y-21326
X49239Y-20473
X49321Y-24744
X49397Y-22771
X49429Y-11644
X49461Y-19612
X49541Y-20874
X49541Y-21779
X49739Y-10772
X50029Y-16496
X50157Y-10951
X50210Y-23877
X50450Y-22302
X50586Y-15171
X50586Y-21570
X50721Y-22567
X50795Y-16734
X51020Y-17294
X51054Y-20805
X51298Y-26947
X51304Y-21617
X51491Y-22639
X52313Y-60147
X52500Y-32344
X53356Y-17350
X53664Y-16702
X53818Y-31862
X54325Y-16398
X54743Y-37809
X55408Y-32867
X56450Y-19837
X56450Y-21951
X56619Y-15007
X56676Y-50940
X56746Y-18031
X56815Y-19365
X57011Y-52153
X57134Y-16241
X57158Y-47400
X57335Y-20946
X57335Y-22197
X57360Y-25122
X57371Y-28956
X57460Y-52467
X57603Y-17870
X57806Y-16520
X57814Y-34804
X58186Y-20711
X58498Y-21275
X58564Y-44947
X58834Y-45228
X58901Y-34432
X58901Y-37111
X59049Y-21225
X59056Y-50849
X59102Y-20910
X59290Y-50618
X59449Y-20408
X59488Y-21285
X59650Y-19350
X59748Y-36921
X59884Y-29202
X60239Y-22930
X60350Y-52675
X60369Y-20471
X60369Y-21376
X60405Y-48832
X60552Y-29061
X60569Y-49871
X60569Y-50776
X60723Y-20924
X60723Y-21829
X60725Y-22925
X60775Y-31600
X60866Y-19237
X60923Y-50324
X60923Y-51229
X60925Y-16875
X61077Y-20471
X61077Y-21376
X61123Y-47509
X61149Y-31034
X61225Y-22741
X61277Y-49871
X61277Y-50776
X61298Y-27315
X61304Y-19672
X61431Y-20924
X61431Y-21829
X61438Y-37336
X61501Y-48980
X61529Y-24050
X61541Y-52041
X61631Y-50324
X61631Y-51229
X61686Y-48691
X61743Y-47926
X62037Y-32645
X62089Y-49408
X62149Y-48999
X62300Y-16900
X62512Y-51633
X62558Y-21420
X62565Y-50009
X62746Y-52221
X62750Y-16675
X62776Y-18707
X62815Y-28755
X62825Y-50815
X62873Y-52650
X62875Y-21394
X62983Y-35245
X63313Y-57692
X63468Y-24895
X63487Y-26378
X63574Y-51446
X63625Y-17650
X64087Y-13297
X64244Y-15594
X64341Y-22188
X64622Y-16828
X64644Y-27267
X64659Y-21577
X65350Y-27857
X65350Y-31553
X65778Y-24494
X65859Y-19007
X66039Y-29110
X66039Y-32891
X66318Y-15196
X66362Y-20226
X66400Y-29975
X66574Y-14915
X66907Y-13176
X66933Y-32711
X66963Y-18639
X67046Y-45625
X67292Y-47241
X67385Y-19101
X67569Y-29488
X67572Y-39188
X67600Y-20425
X67662Y-18721
X67673Y-16870
X67700Y-42400
X67700Y-45075
X68000Y-49175
X68254Y-17341
X68272Y-16023
X68350Y-48600
X68450Y-22525
X68684Y-40425
X68751Y-24425
X68827Y-20459
X68954Y-28956
X69075Y-31775
X69186Y-47548
X69271Y-40250
X69337Y-17395
X69337Y-19111
X69342Y-46680
X69625Y-43100
X69836Y-15822
X69836Y-19468
X69983Y-19843
X70046Y-32154
X70083Y-54944
X70112Y-53594
X70122Y-47752
X70165Y-27347
X70235Y-16500
X70367Y-23123
X70500Y-59896
X70513Y-19305
X70565Y-16387
X70579Y-26936
X70750Y-53450
X70777Y-29488
X70814Y-15518
X70825Y-22650
X70876Y-56967
X70979Y-28011
X70980Y-29146
X70980Y-33495
X70980Y-37928
X71036Y-50063
X71050Y-42925
X71186Y-15266
X71246Y-21483
X71255Y-54306
X71312Y-17531
X71439Y-18517
X71440Y-49671
X71469Y-19774
X71469Y-20679
X71703Y-15119
X71761Y-17945
X71798Y-27808
X71823Y-19321
X71823Y-20226
X71910Y-24200
X71972Y-15744
X72015Y-17472
X72097Y-50300
X72177Y-19774
X72177Y-20679
X72298Y-29072
X72320Y-48165
X72363Y-17980
X72395Y-21487
X72432Y-18519
X72531Y-19321
X72531Y-20226
X72536Y-22049
X72575Y-42600
X72804Y-46185
X72822Y-33918
X72854Y-35819
X72960Y-22836
X73054Y-17846
X73106Y-29411
X73109Y-34464
X73110Y-48853
X73110Y-49652
X73250Y-24975
X73292Y-19201
X73351Y-21425
X73480Y-18929
X73585Y-55955
X73800Y-54850
X73811Y-14897
X73832Y-54363
X73887Y-20447
X73887Y-23286
X74068Y-51232
X74129Y-38510
X74219Y-49071
X74219Y-49976
X74224Y-28742
X74224Y-37903
X74474Y-27993
X74478Y-45930
X74504Y-19879
X74573Y-49524
X74573Y-50385
X74607Y-46887
X74654Y-26300
X74686Y-46381
X74706Y-38321
X74791Y-47797
X74872Y-20171
X74909Y-51351
X74927Y-49071
X74927Y-49976
X75045Y-47346
X75281Y-49524
X75281Y-50385
X75341Y-26575
X75382Y-47419
X75426Y-48086
X75500Y-58500
X75588Y-34246
X75590Y-52060
X75711Y-31230
X75793Y-23111
X75800Y-16200
X75947Y-28307
X76187Y-50808
X76240Y-58118
X76258Y-34530
X76350Y-18500
X76350Y-51750
X76500Y-49700
X76790Y-23427
X76943Y-51069
X76951Y-30250
X77036Y-24392
X77078Y-49180
X77250Y-51450
X77295Y-49426
X77535Y-18067
X77555Y-24663
X77672Y-17470
X77737Y-22290
X78296Y-15358
X78450Y-20450
X78629Y-35464
X78719Y-40250
X78800Y-58350
X79043Y-35480
X79159Y-32988
X79217Y-37638
X79335Y-38230
X79367Y-29730
X79467Y-53020
X79582Y-34000
X79663Y-40292
X80000Y-19590
X80017Y-40347
X80059Y-54885
X80156Y-28307
X80294Y-40702
X80472Y-28341
X80517Y-11092
X80540Y-36428
X80848Y-43907
X81141Y-38691
X81172Y-20545
X81274Y-23427
X81318Y-36772
X81337Y-24038
X81368Y-52748
X81384Y-39397
X81415Y-41239
X81425Y-17001
X81456Y-38636
X81560Y-18340
X81601Y-11612
X81623Y-47047
X81636Y-36428
X81642Y-26250
X81662Y-40290
X81702Y-19064
X81721Y-50856
X81752Y-54058
X81755Y-17104
X81774Y-38247
X81802Y-54449
X81803Y-56124
X82072Y-15078
X82152Y-50106
X82223Y-51616
X82324Y-11600
X82451Y-54695
X82810Y-54304
X82829Y-19612
X82969Y-51971
X83177Y-49180
X83177Y-50653
X83323Y-52424
X83323Y-53329
X83367Y-51046
X83423Y-46650
X83677Y-51971
X83677Y-52876
X83897Y-20160
X84031Y-52424
X84031Y-53329
X84173Y-19356
X84226Y-14604
X84277Y-17036
X84407Y-54150
X84475Y-13377
X84826Y-23625
X85161Y-53401
X85400Y-55700
X85900Y-54350
X86299Y-15078
X86299Y-48223
X86549Y-11350
T2
X51025Y-14375
X52775Y-14375
X54325Y-14425
X57525Y-14425
X59275Y-14375
X60775Y-14375
X61350Y-59050
X61400Y-57100
X61500Y-55750
X63025Y-14375
X64150Y-56150
X64775Y-14375
X65400Y-56150
X66275Y-14375
X66900Y-56150
X69950Y-56100
X71200Y-56100
X72700Y-56100
T3
X83775Y-57525
X83775Y-59525
X86775Y-57525
X86775Y-59525
T4
X51750Y-54100
X52750Y-54100
X53750Y-54100
T5
X35375Y-21225
X36375Y-21225
X43100Y-19000
X43100Y-20000
X45000Y-28600
X45000Y-29600
X45000Y-30600
X45000Y-31600
X45000Y-32600
X45000Y-35600
X45000Y-36600
X45000Y-37600
X45000Y-38600
X45000Y-39600
X46000Y-28600
X46000Y-29600
X46000Y-30600
X46000Y-31600
X46000Y-32600
X46000Y-35600
X46000Y-36600
X46000Y-37600
X46000Y-38600
X46000Y-39600
X46500Y-50600
X46750Y-42100
X47200Y-25750
X47500Y-47600
X47500Y-50600
X47750Y-42100
X47825Y-34200
X48200Y-25750
X48500Y-47600
X48500Y-50600
X48750Y-42100
X48825Y-34200
X49200Y-25750
X49750Y-42100
X50200Y-25750
X50500Y-27850
X50800Y-44750
X51200Y-25750
X51500Y-27850
X51800Y-44750
X52200Y-25750
X52500Y-27850
X52800Y-44750
X53000Y-56100
X53200Y-25750
X53800Y-44750
X54000Y-56100
X54200Y-25750
X54800Y-44750
X55000Y-56100
X55200Y-25750
X55750Y-52250
X55750Y-53250
X55800Y-44750
X56200Y-25750
X56800Y-44750
X57800Y-25750
X57800Y-44750
X58800Y-25750
X59800Y-25750
X59800Y-44750
X60250Y-38350
X60250Y-39850
X60800Y-25750
X60800Y-44750
X61250Y-38350
X61250Y-39850
X61800Y-25750
X61800Y-44750
X62250Y-38350
X62250Y-39850
X62800Y-25750
X62800Y-44750
X63250Y-38350
X63250Y-39850
X63800Y-25750
X63800Y-44750
X64250Y-38350
X64250Y-39850
X64800Y-25750
X64800Y-44750
X64850Y-33750
X64850Y-34750
X64850Y-35750
X65000Y-22700
X65000Y-23700
X65250Y-38350
X65250Y-39850
X65800Y-44750
X65850Y-33750
X65850Y-34750
X65850Y-35750
X66800Y-25750
X66800Y-44750
X67800Y-25750
X68000Y-41350
X68800Y-25750
X68800Y-44750
X69000Y-10850
X69000Y-11850
X69000Y-12850
X69000Y-41350
X69800Y-25750
X69800Y-44750
X70000Y-41350
X70500Y-10850
X70500Y-11850
X70500Y-12850
X70650Y-48450
X70650Y-49450
X70800Y-25750
X70800Y-44750
X71000Y-41350
X71800Y-25750
X71800Y-44750
X72000Y-10850
X72000Y-11850
X72000Y-12850
X72800Y-25750
X72800Y-44750
X73500Y-10850
X73500Y-11850
X73500Y-12850
X73800Y-25750
X73800Y-44750
X74800Y-44750
X75800Y-44750
X76750Y-10850
X76750Y-11850
X76750Y-12850
X76750Y-13850
X76750Y-14850
X76750Y-15850
X76800Y-25750
X76800Y-26750
X76800Y-27750
X76800Y-28750
X76800Y-29750
X76800Y-30750
X76800Y-31750
X76800Y-32750
X76800Y-33750
X76800Y-34750
X76800Y-35750
X76800Y-36750
X76800Y-37750
X76800Y-38750
X76800Y-39750
X76800Y-40750
X76800Y-41750
X76800Y-42750
X77050Y-21500
X77050Y-22500
X77750Y-10850
X77750Y-11850
X77750Y-12850
X77750Y-13850
X77750Y-14850
X77750Y-15850
X77800Y-25750
X77800Y-26750
X77800Y-27750
X77800Y-28750
X77800Y-29750
X77800Y-30750
X77800Y-31750
X77800Y-32750
X77800Y-33750
X77800Y-34750
X77800Y-35750
X77800Y-36750
X77800Y-37750
X77800Y-38750
X77800Y-39750
X77800Y-40750
X77800Y-41750
X77800Y-42750
X78750Y-10850
X78750Y-11850
X78750Y-12850
X78750Y-13850
X78750Y-14850
X78750Y-15850
X78750Y-16850
X79750Y-16850
X81275Y-58275
X81275Y-59275
X83000Y-10850
X83000Y-11850
X83000Y-12850
X83000Y-13850
X84000Y-10850
X84000Y-11850
X84000Y-12850
X84000Y-13850
X84000Y-27600
X84000Y-28600
X84000Y-29600
X84000Y-30600
X84000Y-31600
X84000Y-34600
X84000Y-35600
X84000Y-36600
X84000Y-37600
X84000Y-38600
X85000Y-27600
X85000Y-28600
X85000Y-29600
X85000Y-30600
X85000Y-31600
X85000Y-34600
X85000Y-35600
X85000Y-36600
X85000Y-37600
X85000Y-38600
X85200Y-25950
X86950Y-55000
X86950Y-56000
T6
X28250Y-14850
X28250Y-15850
X28250Y-17850
X28250Y-18850
X28250Y-20850
X28250Y-21850
X51125Y-11725
X52125Y-11725
X53125Y-11725
X54125Y-11725
X57100Y-55500
X57100Y-59050
X57350Y-11600
X58100Y-55500
X58100Y-59050
X58350Y-11600
X59100Y-55500
X59100Y-59050
X59350Y-11600
X60100Y-55500
X60100Y-59050
X60350Y-11600
X63175Y-11575
X63900Y-58950
X64175Y-11575
X64900Y-58950
X65175Y-11575
X65900Y-58950
X66175Y-11575
X66900Y-58950
X70000Y-58950
X71000Y-58950
X72000Y-58950
X73000Y-58950
T7
X34250Y-50420
X34250Y-54170
X34250Y-57920
X37250Y-51780
X37250Y-55530
X37250Y-59280
T8
X26750Y-24600
X26750Y-26600
X26750Y-30100
X26750Y-32100
X26750Y-35600
X26750Y-37600
X26750Y-41100
X26750Y-43100
X26750Y-56850
X26750Y-58850
X26800Y-46400
X26800Y-48400
X26800Y-51600
X26800Y-53600
T9
X45300Y-44750
X45800Y-25750
X75300Y-25750
X77800Y-44750
T10
X35750Y-51100
X35750Y-54850
X35750Y-58600
T11
X52750Y-47500
T0
M30
