%FSLAX45Y45*%
G04 Gerber Fmt 4.5, Leading zero omitted, Abs format (unit mm)*
G04 Created by KiCad (PCBNEW 4.0.1-stable) date Tuesday, March 29, 2016 'AMt' 01:48:15 AM*
%MOMM*%
G01*
G04 APERTURE LIST*
%ADD10C,0.127000*%
%ADD11C,0.381000*%
%ADD12C,0.200000*%
%ADD13C,0.300000*%
G04 APERTURE END LIST*
D10*
D11*
X22352000Y-2286000D02*
X6350000Y-2286000D01*
X22352000Y-15494000D02*
X22352000Y-2286000D01*
X6350000Y-15494000D02*
X22352000Y-15494000D01*
X6350000Y-2286000D02*
X6350000Y-15494000D01*
D12*
X13208508Y-11875008D02*
X13588492Y-12254992D01*
X13588492Y-11875008D02*
X13208508Y-12254992D01*
D13*
X6602378Y-15978764D02*
X6602378Y-15678764D01*
X6673807Y-15678764D01*
X6716664Y-15693050D01*
X6745236Y-15721621D01*
X6759521Y-15750193D01*
X6773807Y-15807336D01*
X6773807Y-15850193D01*
X6759521Y-15907336D01*
X6745236Y-15935907D01*
X6716664Y-15964479D01*
X6673807Y-15978764D01*
X6602378Y-15978764D01*
X6902378Y-15978764D02*
X6902378Y-15778764D01*
X6902378Y-15835907D02*
X6916664Y-15807336D01*
X6930950Y-15793050D01*
X6959521Y-15778764D01*
X6988093Y-15778764D01*
X7088093Y-15978764D02*
X7088093Y-15778764D01*
X7088093Y-15678764D02*
X7073807Y-15693050D01*
X7088093Y-15707336D01*
X7102378Y-15693050D01*
X7088093Y-15678764D01*
X7088093Y-15707336D01*
X7273807Y-15978764D02*
X7245236Y-15964479D01*
X7230950Y-15935907D01*
X7230950Y-15678764D01*
X7430950Y-15978764D02*
X7402378Y-15964479D01*
X7388093Y-15935907D01*
X7388093Y-15678764D01*
X7773807Y-15978764D02*
X7773807Y-15678764D01*
X7873807Y-15893050D01*
X7973807Y-15678764D01*
X7973807Y-15978764D01*
X8245236Y-15978764D02*
X8245236Y-15821621D01*
X8230950Y-15793050D01*
X8202378Y-15778764D01*
X8145236Y-15778764D01*
X8116664Y-15793050D01*
X8245236Y-15964479D02*
X8216664Y-15978764D01*
X8145236Y-15978764D01*
X8116664Y-15964479D01*
X8102378Y-15935907D01*
X8102378Y-15907336D01*
X8116664Y-15878764D01*
X8145236Y-15864479D01*
X8216664Y-15864479D01*
X8245236Y-15850193D01*
X8388093Y-15778764D02*
X8388093Y-16078764D01*
X8388093Y-15793050D02*
X8416664Y-15778764D01*
X8473807Y-15778764D01*
X8502379Y-15793050D01*
X8516664Y-15807336D01*
X8530950Y-15835907D01*
X8530950Y-15921621D01*
X8516664Y-15950193D01*
X8502379Y-15964479D01*
X8473807Y-15978764D01*
X8416664Y-15978764D01*
X8388093Y-15964479D01*
X8659521Y-15950193D02*
X8673807Y-15964479D01*
X8659521Y-15978764D01*
X8645236Y-15964479D01*
X8659521Y-15950193D01*
X8659521Y-15978764D01*
X8659521Y-15793050D02*
X8673807Y-15807336D01*
X8659521Y-15821621D01*
X8645236Y-15807336D01*
X8659521Y-15793050D01*
X8659521Y-15821621D01*
X5950966Y-16283058D02*
X6330950Y-16663042D01*
X6330950Y-16283058D02*
X5950966Y-16663042D01*
X6573807Y-16308764D02*
X6759521Y-16308764D01*
X6659521Y-16423050D01*
X6702378Y-16423050D01*
X6730950Y-16437336D01*
X6745236Y-16451621D01*
X6759521Y-16480193D01*
X6759521Y-16551621D01*
X6745236Y-16580193D01*
X6730950Y-16594479D01*
X6702378Y-16608764D01*
X6616664Y-16608764D01*
X6588093Y-16594479D01*
X6573807Y-16580193D01*
X6888093Y-16580193D02*
X6902378Y-16594479D01*
X6888093Y-16608764D01*
X6873807Y-16594479D01*
X6888093Y-16580193D01*
X6888093Y-16608764D01*
X7073807Y-16437336D02*
X7045236Y-16423050D01*
X7030950Y-16408764D01*
X7016664Y-16380193D01*
X7016664Y-16365907D01*
X7030950Y-16337336D01*
X7045236Y-16323050D01*
X7073807Y-16308764D01*
X7130950Y-16308764D01*
X7159521Y-16323050D01*
X7173807Y-16337336D01*
X7188093Y-16365907D01*
X7188093Y-16380193D01*
X7173807Y-16408764D01*
X7159521Y-16423050D01*
X7130950Y-16437336D01*
X7073807Y-16437336D01*
X7045236Y-16451621D01*
X7030950Y-16465907D01*
X7016664Y-16494479D01*
X7016664Y-16551621D01*
X7030950Y-16580193D01*
X7045236Y-16594479D01*
X7073807Y-16608764D01*
X7130950Y-16608764D01*
X7159521Y-16594479D01*
X7173807Y-16580193D01*
X7188093Y-16551621D01*
X7188093Y-16494479D01*
X7173807Y-16465907D01*
X7159521Y-16451621D01*
X7130950Y-16437336D01*
X7373807Y-16308764D02*
X7402378Y-16308764D01*
X7430950Y-16323050D01*
X7445236Y-16337336D01*
X7459521Y-16365907D01*
X7473807Y-16423050D01*
X7473807Y-16494479D01*
X7459521Y-16551621D01*
X7445236Y-16580193D01*
X7430950Y-16594479D01*
X7402378Y-16608764D01*
X7373807Y-16608764D01*
X7345236Y-16594479D01*
X7330950Y-16580193D01*
X7316664Y-16551621D01*
X7302378Y-16494479D01*
X7302378Y-16423050D01*
X7316664Y-16365907D01*
X7330950Y-16337336D01*
X7345236Y-16323050D01*
X7373807Y-16308764D01*
X7602378Y-16608764D02*
X7602378Y-16408764D01*
X7602378Y-16437336D02*
X7616664Y-16423050D01*
X7645236Y-16408764D01*
X7688093Y-16408764D01*
X7716664Y-16423050D01*
X7730950Y-16451621D01*
X7730950Y-16608764D01*
X7730950Y-16451621D02*
X7745236Y-16423050D01*
X7773807Y-16408764D01*
X7816664Y-16408764D01*
X7845236Y-16423050D01*
X7859521Y-16451621D01*
X7859521Y-16608764D01*
X8002378Y-16608764D02*
X8002378Y-16408764D01*
X8002378Y-16437336D02*
X8016664Y-16423050D01*
X8045236Y-16408764D01*
X8088093Y-16408764D01*
X8116664Y-16423050D01*
X8130950Y-16451621D01*
X8130950Y-16608764D01*
X8130950Y-16451621D02*
X8145236Y-16423050D01*
X8173807Y-16408764D01*
X8216664Y-16408764D01*
X8245236Y-16423050D01*
X8259521Y-16451621D01*
X8259521Y-16608764D01*
X8845236Y-16294479D02*
X8588093Y-16680193D01*
X9230950Y-16308764D02*
X9259521Y-16308764D01*
X9288093Y-16323050D01*
X9302378Y-16337336D01*
X9316664Y-16365907D01*
X9330950Y-16423050D01*
X9330950Y-16494479D01*
X9316664Y-16551621D01*
X9302378Y-16580193D01*
X9288093Y-16594479D01*
X9259521Y-16608764D01*
X9230950Y-16608764D01*
X9202378Y-16594479D01*
X9188093Y-16580193D01*
X9173807Y-16551621D01*
X9159521Y-16494479D01*
X9159521Y-16423050D01*
X9173807Y-16365907D01*
X9188093Y-16337336D01*
X9202378Y-16323050D01*
X9230950Y-16308764D01*
X9459521Y-16580193D02*
X9473807Y-16594479D01*
X9459521Y-16608764D01*
X9445236Y-16594479D01*
X9459521Y-16580193D01*
X9459521Y-16608764D01*
X9759521Y-16608764D02*
X9588093Y-16608764D01*
X9673807Y-16608764D02*
X9673807Y-16308764D01*
X9645236Y-16351621D01*
X9616664Y-16380193D01*
X9588093Y-16394479D01*
X10030950Y-16308764D02*
X9888093Y-16308764D01*
X9873807Y-16451621D01*
X9888093Y-16437336D01*
X9916664Y-16423050D01*
X9988093Y-16423050D01*
X10016664Y-16437336D01*
X10030950Y-16451621D01*
X10045236Y-16480193D01*
X10045236Y-16551621D01*
X10030950Y-16580193D01*
X10016664Y-16594479D01*
X9988093Y-16608764D01*
X9916664Y-16608764D01*
X9888093Y-16594479D01*
X9873807Y-16580193D01*
X10230950Y-16308764D02*
X10259521Y-16308764D01*
X10288093Y-16323050D01*
X10302378Y-16337336D01*
X10316664Y-16365907D01*
X10330950Y-16423050D01*
X10330950Y-16494479D01*
X10316664Y-16551621D01*
X10302378Y-16580193D01*
X10288093Y-16594479D01*
X10259521Y-16608764D01*
X10230950Y-16608764D01*
X10202378Y-16594479D01*
X10188093Y-16580193D01*
X10173807Y-16551621D01*
X10159521Y-16494479D01*
X10159521Y-16423050D01*
X10173807Y-16365907D01*
X10188093Y-16337336D01*
X10202378Y-16323050D01*
X10230950Y-16308764D01*
X10445236Y-16308764D02*
X10445236Y-16365907D01*
X10559521Y-16308764D02*
X10559521Y-16365907D01*
X11002378Y-16723050D02*
X10988093Y-16708764D01*
X10959521Y-16665907D01*
X10945236Y-16637336D01*
X10930950Y-16594479D01*
X10916664Y-16523050D01*
X10916664Y-16465907D01*
X10930950Y-16394479D01*
X10945236Y-16351621D01*
X10959521Y-16323050D01*
X10988093Y-16280193D01*
X11002378Y-16265907D01*
X11273807Y-16608764D02*
X11102378Y-16608764D01*
X11188093Y-16608764D02*
X11188093Y-16308764D01*
X11159521Y-16351621D01*
X11130950Y-16380193D01*
X11102378Y-16394479D01*
X11630950Y-16608764D02*
X11630950Y-16308764D01*
X11759521Y-16608764D02*
X11759521Y-16451621D01*
X11745235Y-16423050D01*
X11716664Y-16408764D01*
X11673807Y-16408764D01*
X11645235Y-16423050D01*
X11630950Y-16437336D01*
X11945235Y-16608764D02*
X11916664Y-16594479D01*
X11902378Y-16580193D01*
X11888093Y-16551621D01*
X11888093Y-16465907D01*
X11902378Y-16437336D01*
X11916664Y-16423050D01*
X11945235Y-16408764D01*
X11988093Y-16408764D01*
X12016664Y-16423050D01*
X12030950Y-16437336D01*
X12045235Y-16465907D01*
X12045235Y-16551621D01*
X12030950Y-16580193D01*
X12016664Y-16594479D01*
X11988093Y-16608764D01*
X11945235Y-16608764D01*
X12216664Y-16608764D02*
X12188093Y-16594479D01*
X12173807Y-16565907D01*
X12173807Y-16308764D01*
X12445236Y-16594479D02*
X12416664Y-16608764D01*
X12359521Y-16608764D01*
X12330950Y-16594479D01*
X12316664Y-16565907D01*
X12316664Y-16451621D01*
X12330950Y-16423050D01*
X12359521Y-16408764D01*
X12416664Y-16408764D01*
X12445236Y-16423050D01*
X12459521Y-16451621D01*
X12459521Y-16480193D01*
X12316664Y-16508764D01*
X12559521Y-16723050D02*
X12573807Y-16708764D01*
X12602378Y-16665907D01*
X12616664Y-16637336D01*
X12630950Y-16594479D01*
X12645236Y-16523050D01*
X12645236Y-16465907D01*
X12630950Y-16394479D01*
X12616664Y-16351621D01*
X12602378Y-16323050D01*
X12573807Y-16280193D01*
X12559521Y-16265907D01*
X13102378Y-16723050D02*
X13088093Y-16708764D01*
X13059521Y-16665907D01*
X13045236Y-16637336D01*
X13030950Y-16594479D01*
X13016664Y-16523050D01*
X13016664Y-16465907D01*
X13030950Y-16394479D01*
X13045236Y-16351621D01*
X13059521Y-16323050D01*
X13088093Y-16280193D01*
X13102378Y-16265907D01*
X13216664Y-16408764D02*
X13216664Y-16608764D01*
X13216664Y-16437336D02*
X13230950Y-16423050D01*
X13259521Y-16408764D01*
X13302378Y-16408764D01*
X13330950Y-16423050D01*
X13345236Y-16451621D01*
X13345236Y-16608764D01*
X13530950Y-16608764D02*
X13502378Y-16594479D01*
X13488093Y-16580193D01*
X13473807Y-16551621D01*
X13473807Y-16465907D01*
X13488093Y-16437336D01*
X13502378Y-16423050D01*
X13530950Y-16408764D01*
X13573807Y-16408764D01*
X13602378Y-16423050D01*
X13616664Y-16437336D01*
X13630950Y-16465907D01*
X13630950Y-16551621D01*
X13616664Y-16580193D01*
X13602378Y-16594479D01*
X13573807Y-16608764D01*
X13530950Y-16608764D01*
X13716664Y-16408764D02*
X13830950Y-16408764D01*
X13759521Y-16308764D02*
X13759521Y-16565907D01*
X13773807Y-16594479D01*
X13802378Y-16608764D01*
X13830950Y-16608764D01*
X14159521Y-16408764D02*
X14159521Y-16708764D01*
X14159521Y-16423050D02*
X14188093Y-16408764D01*
X14245236Y-16408764D01*
X14273807Y-16423050D01*
X14288093Y-16437336D01*
X14302378Y-16465907D01*
X14302378Y-16551621D01*
X14288093Y-16580193D01*
X14273807Y-16594479D01*
X14245236Y-16608764D01*
X14188093Y-16608764D01*
X14159521Y-16594479D01*
X14473807Y-16608764D02*
X14445236Y-16594479D01*
X14430950Y-16565907D01*
X14430950Y-16308764D01*
X14716664Y-16608764D02*
X14716664Y-16451621D01*
X14702379Y-16423050D01*
X14673807Y-16408764D01*
X14616664Y-16408764D01*
X14588093Y-16423050D01*
X14716664Y-16594479D02*
X14688093Y-16608764D01*
X14616664Y-16608764D01*
X14588093Y-16594479D01*
X14573807Y-16565907D01*
X14573807Y-16537336D01*
X14588093Y-16508764D01*
X14616664Y-16494479D01*
X14688093Y-16494479D01*
X14716664Y-16480193D01*
X14816664Y-16408764D02*
X14930950Y-16408764D01*
X14859521Y-16308764D02*
X14859521Y-16565907D01*
X14873807Y-16594479D01*
X14902379Y-16608764D01*
X14930950Y-16608764D01*
X15145236Y-16594479D02*
X15116664Y-16608764D01*
X15059521Y-16608764D01*
X15030950Y-16594479D01*
X15016664Y-16565907D01*
X15016664Y-16451621D01*
X15030950Y-16423050D01*
X15059521Y-16408764D01*
X15116664Y-16408764D01*
X15145236Y-16423050D01*
X15159521Y-16451621D01*
X15159521Y-16480193D01*
X15016664Y-16508764D01*
X15416664Y-16608764D02*
X15416664Y-16308764D01*
X15416664Y-16594479D02*
X15388093Y-16608764D01*
X15330950Y-16608764D01*
X15302379Y-16594479D01*
X15288093Y-16580193D01*
X15273807Y-16551621D01*
X15273807Y-16465907D01*
X15288093Y-16437336D01*
X15302379Y-16423050D01*
X15330950Y-16408764D01*
X15388093Y-16408764D01*
X15416664Y-16423050D01*
X15530950Y-16723050D02*
X15545236Y-16708764D01*
X15573807Y-16665907D01*
X15588093Y-16637336D01*
X15602379Y-16594479D01*
X15616664Y-16523050D01*
X15616664Y-16465907D01*
X15602379Y-16394479D01*
X15588093Y-16351621D01*
X15573807Y-16323050D01*
X15545236Y-16280193D01*
X15530950Y-16265907D01*
M02*
