G04 #@! TF.FileFunction,Soldermask,Bot*
%FSLAX46Y46*%
G04 Gerber Fmt 4.6, Leading zero omitted, Abs format (unit mm)*
G04 Created by KiCad (PCBNEW 4.0.1-stable) date Friday, April 08, 2016 'AMt' 02:22:46 AM*
%MOMM*%
G01*
G04 APERTURE LIST*
%ADD10C,0.020000*%
%ADD11C,3.810000*%
%ADD12C,4.292600*%
%ADD13R,2.235200X2.540000*%
%ADD14O,2.235200X2.540000*%
%ADD15R,2.540000X2.540000*%
%ADD16O,2.540000X2.540000*%
%ADD17R,2.235200X2.235200*%
%ADD18O,2.235200X2.235200*%
%ADD19R,2.743200X2.743200*%
%ADD20O,4.008120X2.308860*%
%ADD21O,2.308860X4.008120*%
%ADD22R,2.540000X2.235200*%
%ADD23O,2.540000X2.235200*%
%ADD24O,2.032000X3.048000*%
%ADD25C,3.683000*%
%ADD26C,2.032000*%
%ADD27C,1.905000*%
%ADD28O,2.009140X3.007360*%
%ADD29C,4.307840*%
%ADD30C,2.506980*%
%ADD31R,3.507740X3.507740*%
%ADD32C,3.507740*%
%ADD33C,0.254000*%
G04 APERTURE END LIST*
D10*
D11*
X86995000Y-128066800D03*
X94615000Y-131521200D03*
D12*
X90805000Y-129794000D03*
D11*
X86995000Y-137591800D03*
X94615000Y-141046200D03*
D12*
X90805000Y-139319000D03*
D11*
X86995000Y-147116800D03*
X94615000Y-150571200D03*
D12*
X90805000Y-148844000D03*
D13*
X128270000Y-70739000D03*
D14*
X130810000Y-70739000D03*
X133350000Y-70739000D03*
D13*
X134620000Y-142494000D03*
D14*
X137160000Y-142494000D03*
X139700000Y-142494000D03*
D13*
X118110000Y-128524000D03*
D14*
X120650000Y-128524000D03*
X123190000Y-128524000D03*
D15*
X120650000Y-120904000D03*
D16*
X123190000Y-120904000D03*
D15*
X200025000Y-42799000D03*
D16*
X202565000Y-42799000D03*
D15*
X165100000Y-57658000D03*
D16*
X165100000Y-60198000D03*
D15*
X206438000Y-148018000D03*
D16*
X206438000Y-150558000D03*
D17*
X116840000Y-82804000D03*
D18*
X114300000Y-82804000D03*
X116840000Y-80264000D03*
X114300000Y-80264000D03*
X116840000Y-77724000D03*
X114300000Y-77724000D03*
X116840000Y-75184000D03*
X114300000Y-75184000D03*
X116840000Y-72644000D03*
X114300000Y-72644000D03*
D19*
X216408000Y-65913000D03*
D20*
X71755000Y-37719000D03*
X71755000Y-40259000D03*
D21*
X153289000Y-29464000D03*
X150749000Y-29464000D03*
X148209000Y-29464000D03*
X145669000Y-29464000D03*
X168084000Y-29400500D03*
X165544000Y-29400500D03*
X163004000Y-29400500D03*
X160464000Y-29400500D03*
X137478000Y-29781500D03*
X134938000Y-29781500D03*
X132398000Y-29781500D03*
X129858000Y-29781500D03*
D13*
X165735000Y-97409000D03*
D14*
X163195000Y-97409000D03*
X160655000Y-97409000D03*
X158115000Y-97409000D03*
X155575000Y-97409000D03*
X153035000Y-97409000D03*
D13*
X165735000Y-101219000D03*
D14*
X163195000Y-101219000D03*
X160655000Y-101219000D03*
X158115000Y-101219000D03*
X155575000Y-101219000D03*
X153035000Y-101219000D03*
D13*
X172720000Y-105029000D03*
D14*
X175260000Y-105029000D03*
X177800000Y-105029000D03*
X180340000Y-105029000D03*
D13*
X126365000Y-106934000D03*
D14*
X123825000Y-106934000D03*
X121285000Y-106934000D03*
X118745000Y-106934000D03*
D17*
X213360000Y-70104000D03*
D18*
X215900000Y-70104000D03*
X213360000Y-72644000D03*
X215900000Y-72644000D03*
X213360000Y-75184000D03*
X215900000Y-75184000D03*
X213360000Y-77724000D03*
X215900000Y-77724000D03*
X213360000Y-80264000D03*
X215900000Y-80264000D03*
D17*
X213360000Y-87884000D03*
D18*
X215900000Y-87884000D03*
X213360000Y-90424000D03*
X215900000Y-90424000D03*
X213360000Y-92964000D03*
X215900000Y-92964000D03*
X213360000Y-95504000D03*
X215900000Y-95504000D03*
X213360000Y-98044000D03*
X215900000Y-98044000D03*
D22*
X200025000Y-27559000D03*
D23*
X200025000Y-30099000D03*
X200025000Y-32639000D03*
X200025000Y-35179000D03*
X200025000Y-37719000D03*
X200025000Y-40259000D03*
D17*
X194945000Y-27559000D03*
D18*
X197485000Y-27559000D03*
X194945000Y-30099000D03*
X197485000Y-30099000D03*
X194945000Y-32639000D03*
X197485000Y-32639000D03*
X194945000Y-35179000D03*
X197485000Y-35179000D03*
X194945000Y-37719000D03*
X197485000Y-37719000D03*
X194945000Y-40259000D03*
X197485000Y-40259000D03*
D20*
X71755000Y-52959000D03*
X71755000Y-55499000D03*
X71755000Y-45339000D03*
X71755000Y-47879000D03*
D17*
X210820000Y-27559000D03*
D18*
X213360000Y-27559000D03*
X210820000Y-30099000D03*
X213360000Y-30099000D03*
X210820000Y-32639000D03*
X213360000Y-32639000D03*
X210820000Y-35179000D03*
X213360000Y-35179000D03*
D21*
X162306000Y-149733000D03*
X164846000Y-149733000D03*
X167386000Y-149733000D03*
X169926000Y-149733000D03*
X145034000Y-140970000D03*
X147574000Y-140970000D03*
X150114000Y-140970000D03*
X152654000Y-140970000D03*
X177800000Y-149733000D03*
X180340000Y-149733000D03*
X182880000Y-149733000D03*
X185420000Y-149733000D03*
X145034000Y-149987000D03*
X147574000Y-149987000D03*
X150114000Y-149987000D03*
X152654000Y-149987000D03*
D17*
X116840000Y-100584000D03*
D18*
X114300000Y-100584000D03*
X116840000Y-98044000D03*
X114300000Y-98044000D03*
X116840000Y-95504000D03*
X114300000Y-95504000D03*
X116840000Y-92964000D03*
X114300000Y-92964000D03*
X116840000Y-90424000D03*
X114300000Y-90424000D03*
D15*
X195707000Y-54610000D03*
D16*
X195707000Y-57150000D03*
D15*
X109474000Y-48260000D03*
D16*
X109474000Y-50800000D03*
D15*
X179451000Y-125603000D03*
D16*
X179451000Y-123063000D03*
D15*
X141605000Y-132715000D03*
D16*
X141605000Y-135255000D03*
D15*
X220853000Y-142240000D03*
D16*
X220853000Y-139700000D03*
D24*
X169672000Y-65405000D03*
X172212000Y-65405000D03*
X174752000Y-65405000D03*
X177292000Y-65405000D03*
X179832000Y-65405000D03*
X182372000Y-65405000D03*
X184912000Y-65405000D03*
X187452000Y-65405000D03*
X192532000Y-113665000D03*
X189992000Y-113665000D03*
X187452000Y-113665000D03*
X184912000Y-113665000D03*
X174752000Y-113665000D03*
X169672000Y-113665000D03*
X167132000Y-113665000D03*
X177292000Y-113665000D03*
X179832000Y-113665000D03*
X182372000Y-113665000D03*
X164592000Y-113665000D03*
X162052000Y-113665000D03*
X159512000Y-113665000D03*
X151892000Y-113665000D03*
X154432000Y-113665000D03*
X156972000Y-113665000D03*
X146812000Y-113665000D03*
X144272000Y-113665000D03*
X141732000Y-113665000D03*
X136652000Y-113665000D03*
X134112000Y-113665000D03*
X164592000Y-65405000D03*
X162052000Y-65405000D03*
X159512000Y-65405000D03*
X156972000Y-65405000D03*
X154432000Y-65405000D03*
X151892000Y-65405000D03*
X149352000Y-65405000D03*
X146812000Y-65405000D03*
X142748000Y-65405000D03*
X140208000Y-65405000D03*
X137668000Y-65405000D03*
X135128000Y-65405000D03*
X132588000Y-65405000D03*
X130048000Y-65405000D03*
X127508000Y-65405000D03*
X124968000Y-65405000D03*
X139192000Y-113665000D03*
D25*
X197612000Y-113665000D03*
X116332000Y-65405000D03*
X115062000Y-113665000D03*
D26*
X195072000Y-67945000D03*
X197612000Y-67945000D03*
X195072000Y-70485000D03*
X197612000Y-70485000D03*
X195072000Y-73025000D03*
X197612000Y-73025000D03*
X195072000Y-75565000D03*
X197612000Y-75565000D03*
X195072000Y-65405000D03*
X197612000Y-65405000D03*
X197612000Y-78105000D03*
X195072000Y-78105000D03*
X195072000Y-80645000D03*
X197612000Y-80645000D03*
X195072000Y-83185000D03*
X197612000Y-83185000D03*
X195072000Y-85725000D03*
X197612000Y-85725000D03*
X195072000Y-88265000D03*
X197612000Y-88265000D03*
X195072000Y-90805000D03*
X197612000Y-90805000D03*
X195072000Y-93345000D03*
X197612000Y-93345000D03*
X195072000Y-95885000D03*
X197612000Y-95885000D03*
X195072000Y-98425000D03*
X197612000Y-98425000D03*
X195072000Y-100965000D03*
X197612000Y-100965000D03*
X195072000Y-103505000D03*
X197612000Y-103505000D03*
X195072000Y-106045000D03*
X197612000Y-106045000D03*
X195072000Y-108585000D03*
X197612000Y-108585000D03*
D24*
X122428000Y-65405000D03*
X119888000Y-65405000D03*
X131572000Y-113665000D03*
X129032000Y-113665000D03*
D25*
X191262000Y-65405000D03*
D26*
X164719000Y-90805000D03*
X164719000Y-88265000D03*
X164719000Y-85725000D03*
X167259000Y-90805000D03*
X167259000Y-88265000D03*
X167259000Y-85725000D03*
D27*
X220408000Y-146114000D03*
X220408000Y-151194000D03*
X212788000Y-146114000D03*
X212788000Y-151194000D03*
D28*
X133985000Y-137414000D03*
X131445000Y-137414000D03*
X136525000Y-137414000D03*
D29*
X133985000Y-120650000D03*
D30*
X146114000Y-36639500D03*
X160084000Y-36512500D03*
X129604000Y-36512500D03*
X169926000Y-142621000D03*
X155829000Y-149987000D03*
X184658000Y-142494000D03*
X150558000Y-36512500D03*
X154368000Y-36512500D03*
X164528000Y-36512500D03*
X168338000Y-36512500D03*
X134048000Y-36512500D03*
X137986000Y-36639500D03*
X180848000Y-142494000D03*
X177673000Y-142494000D03*
X166116000Y-142621000D03*
X162941000Y-142621000D03*
X156210000Y-141605000D03*
D31*
X67945000Y-144399000D03*
D32*
X67945000Y-149479000D03*
D31*
X68072000Y-117856000D03*
D32*
X68072000Y-122936000D03*
D31*
X68072000Y-131064000D03*
D32*
X68072000Y-136144000D03*
D31*
X67945000Y-104394000D03*
D32*
X67945000Y-109474000D03*
D31*
X67945000Y-76454000D03*
D32*
X67945000Y-81534000D03*
D31*
X67945000Y-62484000D03*
D32*
X67945000Y-67564000D03*
D31*
X67945000Y-90424000D03*
D32*
X67945000Y-95504000D03*
D30*
X155956000Y-145034000D03*
D15*
X92392500Y-53911500D03*
D16*
X89852500Y-53911500D03*
D15*
X124015500Y-86868000D03*
D16*
X121475500Y-86868000D03*
D22*
X175260000Y-27559000D03*
D23*
X175260000Y-30099000D03*
X175260000Y-32639000D03*
D22*
X179070000Y-27559000D03*
D23*
X179070000Y-30099000D03*
X179070000Y-32639000D03*
D22*
X182880000Y-27559000D03*
D23*
X182880000Y-30099000D03*
X182880000Y-32639000D03*
D22*
X186690000Y-27559000D03*
D23*
X186690000Y-30099000D03*
X186690000Y-32639000D03*
D33*
G36*
X156464000Y-56007000D02*
X153666948Y-56007000D01*
X152908000Y-55072911D01*
X152908000Y-51435000D01*
X156464000Y-51435000D01*
X156464000Y-56007000D01*
X156464000Y-56007000D01*
G37*
X156464000Y-56007000D02*
X153666948Y-56007000D01*
X152908000Y-55072911D01*
X152908000Y-51435000D01*
X156464000Y-51435000D01*
X156464000Y-56007000D01*
G36*
X122655697Y-50191303D02*
X124433697Y-51969303D01*
X124475711Y-51997166D01*
X124517459Y-52006356D01*
X125730000Y-52064096D01*
X125730000Y-56324500D01*
X124890098Y-56324500D01*
X123529429Y-55087528D01*
X123466718Y-55056549D01*
X122863235Y-54946825D01*
X122744978Y-53646002D01*
X122730540Y-53597701D01*
X122708303Y-53567697D01*
X121351630Y-52211024D01*
X121409067Y-51234598D01*
X122419243Y-50165000D01*
X122637991Y-50165000D01*
X122655697Y-50191303D01*
X122655697Y-50191303D01*
G37*
X122655697Y-50191303D02*
X124433697Y-51969303D01*
X124475711Y-51997166D01*
X124517459Y-52006356D01*
X125730000Y-52064096D01*
X125730000Y-56324500D01*
X124890098Y-56324500D01*
X123529429Y-55087528D01*
X123466718Y-55056549D01*
X122863235Y-54946825D01*
X122744978Y-53646002D01*
X122730540Y-53597701D01*
X122708303Y-53567697D01*
X121351630Y-52211024D01*
X121409067Y-51234598D01*
X122419243Y-50165000D01*
X122637991Y-50165000D01*
X122655697Y-50191303D01*
G36*
X184467500Y-52829434D02*
X181485107Y-52769786D01*
X181039267Y-52156756D01*
X181099670Y-48895000D01*
X184467500Y-48895000D01*
X184467500Y-52829434D01*
X184467500Y-52829434D01*
G37*
X184467500Y-52829434D02*
X181485107Y-52769786D01*
X181039267Y-52156756D01*
X181099670Y-48895000D01*
X184467500Y-48895000D01*
X184467500Y-52829434D01*
G36*
X210314708Y-131934702D02*
X210332627Y-131945545D01*
X210373272Y-131952980D01*
X213946668Y-132015671D01*
X214821514Y-132773871D01*
X214883256Y-136293159D01*
X214566500Y-136715500D01*
X211694453Y-136715500D01*
X211390566Y-134223626D01*
X211374652Y-134175791D01*
X211355594Y-134150508D01*
X209259406Y-131992668D01*
X209309334Y-131892812D01*
X210314708Y-131934702D01*
X210314708Y-131934702D01*
G37*
X210314708Y-131934702D02*
X210332627Y-131945545D01*
X210373272Y-131952980D01*
X213946668Y-132015671D01*
X214821514Y-132773871D01*
X214883256Y-136293159D01*
X214566500Y-136715500D01*
X211694453Y-136715500D01*
X211390566Y-134223626D01*
X211374652Y-134175791D01*
X211355594Y-134150508D01*
X209259406Y-131992668D01*
X209309334Y-131892812D01*
X210314708Y-131934702D01*
G36*
X191708277Y-127889000D02*
X188165490Y-127889000D01*
X188150500Y-127859020D01*
X188150500Y-123918480D01*
X188292490Y-123634500D01*
X191768199Y-123634500D01*
X191708277Y-127889000D01*
X191708277Y-127889000D01*
G37*
X191708277Y-127889000D02*
X188165490Y-127889000D01*
X188150500Y-127859020D01*
X188150500Y-123918480D01*
X188292490Y-123634500D01*
X191768199Y-123634500D01*
X191708277Y-127889000D01*
G36*
X156168411Y-125801311D02*
X156177923Y-125813630D01*
X156591000Y-126285718D01*
X156591000Y-130593433D01*
X156250918Y-131386957D01*
X155384236Y-131444735D01*
X153483832Y-131325960D01*
X153663818Y-126286369D01*
X153698749Y-126261787D01*
X153729499Y-126206128D01*
X154276475Y-124079000D01*
X154999700Y-124079000D01*
X156168411Y-125801311D01*
X156168411Y-125801311D01*
G37*
X156168411Y-125801311D02*
X156177923Y-125813630D01*
X156591000Y-126285718D01*
X156591000Y-130593433D01*
X156250918Y-131386957D01*
X155384236Y-131444735D01*
X153483832Y-131325960D01*
X153663818Y-126286369D01*
X153698749Y-126261787D01*
X153729499Y-126206128D01*
X154276475Y-124079000D01*
X154999700Y-124079000D01*
X156168411Y-125801311D01*
M02*
